<?xml version="1.0" standalone="no"?>
<!DOCTYPE svg PUBLIC "-//W3C//DTD SVG 20010904//EN"
 "http://www.w3.org/TR/2001/REC-SVG-20010904/DTD/svg10.dtd">
<svg version="1.0" xmlns="http://www.w3.org/2000/svg"
 width="600.000000pt" height="600.000000pt" viewBox="0 0 600.000000 600.000000"
 preserveAspectRatio="xMidYMid meet">

<g transform="translate(0.000000,600.000000) scale(0.100000,-0.100000)"
fill="#008000" stroke="none">
<path d="M2575 5595 c-608 -63 -1152 -323 -1584 -756 -281 -282 -506 -648
-626 -1019 -10 -30 -21 -65 -26 -77 -11 -29 -34 -127 -58 -251 -61 -303 -62
-649 -5 -957 122 -654 473 -1220 1004 -1618 338 -254 718 -413 1165 -489 113
-19 166 -22 400 -22 284 1 374 10 595 63 297 71 589 198 842 367 107 72 130
84 147 75 10 -6 45 -48 77 -93 234 -335 572 -480 905 -388 126 34 316 130 387
196 l47 43 -270 -2 c-285 -1 -330 4 -478 54 -150 50 -302 155 -395 271 -78 99
-76 113 42 238 278 294 485 661 601 1065 142 495 126 1070 -44 1558 -131 378
-334 700 -621 987 -157 158 -257 239 -426 350 -492 320 -1093 465 -1679 405z
m498 -260 c531 -54 1003 -272 1388 -643 468 -450 719 -1041 719 -1692 0 -388
-83 -730 -262 -1077 -92 -179 -257 -410 -371 -522 -71 -68 -77 -64 -192 146
-240 437 -284 505 -447 677 -214 228 -471 394 -751 486 -54 18 -100 30 -103
28 -2 -3 35 -28 83 -57 150 -89 302 -209 448 -355 204 -204 329 -382 452 -644
30 -64 95 -201 145 -303 l90 -186 -17 -37 c-38 -80 -412 -289 -670 -375 -134
-44 -207 -62 -375 -93 -98 -18 -153 -21 -370 -21 -217 0 -272 3 -370 21 -266
49 -435 102 -650 205 -449 214 -837 593 -1064 1037 -179 349 -258 676 -260
1065 -2 544 177 1057 517 1480 91 113 307 320 425 408 474 352 1050 512 1635
452z"/>
<path d="M2280 4171 c-94 -20 -204 -111 -250 -208 -36 -76 -38 -215 -5 -297 8
-17 4 -18 -63 -11 -166 16 -320 -82 -382 -243 -51 -133 1 -315 118 -418 43
-37 117 -74 190 -95 84 -24 301 -26 477 -4 154 19 235 19 336 -2 l82 -16 20
24 c19 23 19 35 13 254 -9 334 -24 560 -43 640 -35 154 -137 292 -255 348 -62
29 -173 42 -238 28z"/>
<path d="M3169 4122 c-189 -76 -289 -255 -289 -517 0 -55 7 -176 17 -269 14
-145 15 -180 3 -255 -7 -47 -13 -106 -14 -130 -1 -58 1 -59 224 -60 310 -2
635 17 715 40 132 40 232 108 295 202 46 69 55 104 54 214 -1 71 -5 91 -33
147 -71 145 -235 228 -391 197 -30 -6 -64 -13 -75 -16 -19 -6 -20 -1 -20 97 0
90 -3 110 -26 159 -37 79 -90 133 -167 171 -58 29 -78 33 -157 36 -69 1 -101
-2 -136 -16z"/>
<path d="M2729 2810 c-49 -28 -174 -43 -434 -50 -314 -9 -375 -21 -500 -93
-91 -53 -140 -113 -175 -217 -92 -272 123 -530 402 -482 39 7 73 11 75 8 2 -2
-1 -31 -7 -65 -44 -245 176 -465 422 -421 78 15 128 40 189 97 61 57 105 126
132 206 20 57 22 81 20 302 -1 205 -9 347 -38 634 -3 29 -10 62 -16 72 -10 20
-44 24 -70 9z"/>
</g>
</svg>
